<?xml version="1.0" encoding="utf-8"?>
<!-- Generator: Adobe Illustrator 16.0.0, SVG Export Plug-In . SVG Version: 6.00 Build 0)  -->
<!DOCTYPE svg PUBLIC "-//W3C//DTD SVG 1.1//EN" "http://www.w3.org/Graphics/SVG/1.1/DTD/svg11.dtd">
<svg version="1.1" id="Layer_1" xmlns="http://www.w3.org/2000/svg" xmlns:xlink="http://www.w3.org/1999/xlink" x="0px" y="0px"
	 width="156.333px" height="31.167px" viewBox="0 0 156.333 31.167" enable-background="new 0 0 156.333 31.167"
	 xml:space="preserve">
<g>
	<g>
		<path fill="#FFFFFF" d="M18.09,14.773c-0.029-3.223,2.639-4.791,2.762-4.864c-1.512-2.203-3.854-2.504-4.678-2.528
			c-1.967-0.207-3.873,1.177-4.875,1.177c-1.023,0-2.565-1.157-4.23-1.123C4.93,7.468,2.928,8.707,1.83,10.631
			c-2.268,3.923-0.576,9.688,1.596,12.859c1.084,1.553,2.354,3.287,4.014,3.225c1.626-0.064,2.232-1.035,4.193-1.035
			c1.943,0,2.514,1.035,4.207,0.996c1.744-0.025,2.844-1.559,3.891-3.127c1.254-1.777,1.758-3.533,1.779-3.623
			C21.469,19.913,18.123,18.635,18.09,14.773z"/>
	</g>
	<g>
		<path fill="#FFFFFF" d="M14.891,5.295c0.873-1.093,1.471-2.58,1.305-4.089C14.93,1.262,13.35,2.081,12.438,3.15
			c-0.805,0.942-1.525,2.486-1.338,3.938C12.52,7.194,13.977,6.371,14.891,5.295z"/>
	</g>
	<g>
		<path fill="#FFFFFF" d="M41.627,26.493h-2.271l-1.244-3.908h-4.324l-1.184,3.908h-2.211l4.283-13.308h2.646L41.627,26.493z
			 M37.736,20.944l-1.125-3.475c-0.119-0.355-0.342-1.191-0.672-2.507H35.9c-0.131,0.566-0.342,1.402-0.631,2.507l-1.106,3.475
			H37.736z"/>
		<path fill="#FFFFFF" d="M52.625,21.577c0,1.633-0.441,2.922-1.33,3.869c-0.795,0.844-1.781,1.264-2.959,1.264
			c-1.271,0-2.186-0.453-2.739-1.361v5.035h-2.132V20.051c0-1.025-0.027-2.076-0.08-3.154h1.875l0.12,1.521h0.04
			c0.711-1.146,1.789-1.719,3.236-1.719c1.133,0,2.078,0.447,2.834,1.342C52.246,18.938,52.625,20.116,52.625,21.577z
			 M50.453,21.655c0-0.934-0.211-1.703-0.633-2.311c-0.461-0.631-1.08-0.947-1.855-0.947c-0.527,0-1.004,0.176-1.432,0.523
			c-0.428,0.35-0.709,0.807-0.84,1.373c-0.064,0.264-0.098,0.479-0.098,0.648v1.602c0,0.697,0.215,1.285,0.641,1.768
			c0.43,0.48,0.984,0.721,1.668,0.721c0.805,0,1.43-0.311,1.875-0.928C50.229,23.485,50.453,22.668,50.453,21.655z"/>
		<path fill="#FFFFFF" d="M63.662,21.577c0,1.633-0.443,2.922-1.33,3.869c-0.795,0.844-1.781,1.264-2.959,1.264
			c-1.27,0-2.186-0.453-2.74-1.361v5.035H54.5V20.051c0-1.025-0.025-2.076-0.078-3.154h1.875l0.119,1.521h0.039
			c0.711-1.146,1.789-1.719,3.238-1.719c1.131,0,2.078,0.447,2.834,1.342C63.282,18.938,63.662,20.116,63.662,21.577z
			 M61.488,21.655c0-0.934-0.211-1.703-0.633-2.311c-0.461-0.631-1.078-0.947-1.854-0.947c-0.525,0-1.004,0.176-1.434,0.523
			c-0.426,0.35-0.707,0.807-0.838,1.373c-0.064,0.264-0.1,0.479-0.1,0.648v1.602c0,0.697,0.215,1.285,0.641,1.768
			c0.43,0.479,0.984,0.721,1.67,0.721c0.805,0,1.43-0.311,1.876-0.928C61.265,23.485,61.488,22.668,61.488,21.655z"/>
		<path fill="#FFFFFF" d="M76.002,22.76c0,1.133-0.396,2.055-1.184,2.766c-0.865,0.775-2.074,1.164-3.625,1.164
			c-1.432,0-2.579-0.275-3.445-0.828l0.492-1.777c0.936,0.553,1.963,0.83,3.08,0.83c0.805,0,1.43-0.182,1.875-0.543
			c0.447-0.363,0.674-0.846,0.674-1.451c0-0.541-0.186-0.994-0.555-1.363c-0.369-0.367-0.979-0.711-1.836-1.025
			c-2.329-0.869-3.496-2.141-3.496-3.812c0-1.091,0.412-1.985,1.234-2.684c0.822-0.698,1.912-1.047,3.268-1.047
			c1.211,0,2.221,0.211,3.021,0.632l-0.535,1.738c-0.754-0.408-1.604-0.612-2.557-0.612c-0.752,0-1.344,0.185-1.765,0.553
			c-0.354,0.329-0.535,0.73-0.535,1.206c0,0.525,0.204,0.96,0.612,1.302c0.355,0.316,1,0.658,1.936,1.027
			c1.146,0.461,1.987,1,2.525,1.617C75.73,21.071,76.002,21.84,76.002,22.76z"/>
		<path fill="#FFFFFF" d="M83.068,18.497h-2.35v4.66c0,1.184,0.414,1.775,1.244,1.775c0.381,0,0.697-0.031,0.947-0.1l0.059,1.619
			c-0.42,0.158-0.973,0.236-1.658,0.236c-0.842,0-1.5-0.258-1.975-0.771s-0.711-1.375-0.711-2.586v-4.838h-1.398v-1.6h1.398v-1.757
			l2.094-0.632v2.389h2.35V18.497z"/>
		<path fill="#FFFFFF" d="M93.65,21.616c0,1.475-0.422,2.686-1.264,3.633c-0.881,0.975-2.053,1.461-3.514,1.461
			c-1.41,0-2.531-0.467-3.367-1.4s-1.254-2.111-1.254-3.533c0-1.486,0.434-2.705,1.293-3.652c0.861-0.947,2.023-1.422,3.485-1.422
			c1.407,0,2.538,0.469,3.396,1.402C93.244,19.01,93.65,20.18,93.65,21.616z M91.439,21.665c0-0.879-0.189-1.633-0.57-2.264
			c-0.447-0.762-1.087-1.143-1.916-1.143c-0.852,0-1.51,0.381-1.953,1.143c-0.385,0.631-0.574,1.398-0.574,2.305
			c0,0.879,0.189,1.635,0.574,2.264c0.459,0.764,1.104,1.145,1.938,1.145c0.812,0,1.453-0.391,1.916-1.162
			C91.244,23.305,91.439,22.545,91.439,21.665z"/>
		<path fill="#FFFFFF" d="M100.584,18.772c-0.211-0.039-0.438-0.059-0.672-0.059c-0.75,0-1.33,0.281-1.738,0.85
			c-0.355,0.5-0.531,1.133-0.531,1.895v5.035H95.51v-6.574c0-1.104-0.021-2.113-0.062-3.02h1.857l0.078,1.836h0.059
			c0.227-0.631,0.58-1.141,1.066-1.521c0.475-0.344,0.988-0.514,1.541-0.514c0.197,0,0.375,0.014,0.533,0.039L100.584,18.772
			L100.584,18.772z"/>
		<path fill="#FFFFFF" d="M110.119,21.241c0,0.383-0.025,0.705-0.078,0.967h-6.396c0.023,0.949,0.334,1.674,0.928,2.174
			c0.539,0.447,1.238,0.67,2.094,0.67c0.945,0,1.811-0.148,2.586-0.453l0.334,1.48c-0.908,0.395-1.98,0.592-3.217,0.592
			c-1.486,0-2.656-0.438-3.506-1.311c-0.846-0.875-1.273-2.053-1.273-3.525c0-1.445,0.395-2.65,1.186-3.611
			c0.83-1.025,1.949-1.539,3.357-1.539c1.381,0,2.428,0.514,3.139,1.539C109.836,19.036,110.119,20.043,110.119,21.241z
			 M108.086,20.688c0.016-0.633-0.125-1.178-0.414-1.639c-0.369-0.594-0.938-0.891-1.697-0.891c-0.699,0-1.266,0.289-1.699,0.869
			c-0.354,0.461-0.564,1.016-0.631,1.658L108.086,20.688L108.086,20.688z"/>
	</g>
	<g>
		<g>
			<path fill="#FFFFFF" d="M33.172,8.48c-0.592,0-1.105-0.029-1.531-0.078V1.968c0.551-0.087,1.152-0.136,1.803-0.136
				c2.447,0,3.574,1.203,3.574,3.164C37.018,7.258,35.688,8.48,33.172,8.48z M33.53,2.657c-0.331,0-0.61,0.02-0.843,0.068v4.891
				c0.126,0.02,0.367,0.029,0.707,0.029c1.602,0,2.514-0.912,2.514-2.62C35.908,3.502,35.084,2.657,33.53,2.657z"/>
			<path fill="#FFFFFF" d="M40.523,8.529c-1.377,0-2.27-1.029-2.27-2.426c0-1.456,0.912-2.494,2.35-2.494
				c1.357,0,2.27,0.98,2.27,2.417C42.873,7.5,41.934,8.529,40.523,8.529z M40.565,4.375c-0.757,0-1.243,0.708-1.243,1.698
				c0,0.971,0.495,1.679,1.232,1.679c0.736,0,1.232-0.757,1.232-1.699C41.787,5.093,41.301,4.375,40.565,4.375z"/>
			<path fill="#FFFFFF" d="M50.73,3.706l-1.475,4.716h-0.961l-0.609-2.048c-0.155-0.514-0.283-1.019-0.381-1.523h-0.02
				c-0.076,0.514-0.223,1.029-0.379,1.523l-0.648,2.048h-0.971l-1.389-4.716h1.078l0.533,2.242c0.125,0.534,0.23,1.038,0.32,1.514
				h0.021c0.074-0.397,0.201-0.893,0.385-1.504l0.67-2.251h0.855l0.641,2.203c0.156,0.534,0.283,1.058,0.38,1.553h0.028
				c0.066-0.485,0.174-1,0.318-1.553l0.574-2.203L50.73,3.706L50.73,3.706z"/>
			<path fill="#FFFFFF" d="M56.162,8.422h-1.048V5.714c0-0.834-0.321-1.252-0.951-1.252c-0.622,0-1.049,0.534-1.049,1.155v2.805
				h-1.048V5.054c0-0.417-0.008-0.864-0.039-1.349h0.923L53,4.433h0.027c0.283-0.504,0.855-0.824,1.494-0.824
				c0.99,0,1.642,0.757,1.642,1.989L56.162,8.422L56.162,8.422z"/>
			<path fill="#FFFFFF" d="M59.051,8.422h-1.049v-6.88h1.049V8.422z"/>
			<path fill="#FFFFFF" d="M62.873,8.529c-1.377,0-2.27-1.029-2.27-2.426c0-1.456,0.91-2.494,2.347-2.494
				c1.36,0,2.271,0.98,2.271,2.417C65.221,7.5,64.279,8.529,62.873,8.529z M62.912,4.375c-0.758,0-1.242,0.708-1.242,1.698
				c0,0.971,0.496,1.679,1.23,1.679c0.738,0,1.232-0.757,1.232-1.699C64.133,5.093,63.649,4.375,62.912,4.375z"/>
			<path fill="#FFFFFF" d="M69.354,8.422l-0.078-0.543H69.25c-0.322,0.437-0.789,0.65-1.381,0.65c-0.846,0-1.443-0.592-1.443-1.388
				c0-1.164,1.01-1.766,2.755-1.766V5.288c0-0.621-0.327-0.932-0.979-0.932c-0.465,0-0.873,0.117-1.232,0.35l-0.213-0.689
				c0.436-0.272,0.98-0.408,1.619-0.408c1.232,0,1.854,0.65,1.854,1.951v1.737c0,0.476,0.021,0.845,0.07,1.126L69.354,8.422
				L69.354,8.422z M69.209,6.073c-1.164,0-1.748,0.282-1.748,0.951c0,0.495,0.301,0.737,0.719,0.737c0.533,0,1.029-0.407,1.029-0.96
				V6.073z"/>
			<path fill="#FFFFFF" d="M75.318,8.422l-0.047-0.757H75.24c-0.301,0.572-0.805,0.864-1.514,0.864c-1.137,0-1.979-1-1.979-2.407
				c0-1.475,0.873-2.514,2.065-2.514c0.63,0,1.079,0.213,1.329,0.641h0.021V1.542h1.049v5.609c0,0.456,0.012,0.883,0.039,1.271
				H75.318z M75.164,5.647c0-0.66-0.438-1.223-1.104-1.223c-0.778,0-1.252,0.689-1.252,1.659c0,0.951,0.492,1.602,1.23,1.602
				c0.659,0,1.125-0.573,1.125-1.252V5.647z"/>
			<path fill="#FFFFFF" d="M82.863,8.529c-1.377,0-2.27-1.029-2.27-2.426c0-1.456,0.912-2.494,2.348-2.494
				c1.359,0,2.271,0.98,2.271,2.417C85.213,7.5,84.271,8.529,82.863,8.529z M82.902,4.375c-0.756,0-1.24,0.708-1.24,1.698
				c0,0.971,0.494,1.679,1.23,1.679c0.738,0,1.232-0.757,1.232-1.699C84.127,5.093,83.643,4.375,82.902,4.375z"/>
			<path fill="#FFFFFF" d="M90.85,8.422h-1.049V5.714c0-0.834-0.322-1.252-0.951-1.252c-0.623,0-1.049,0.534-1.049,1.155v2.805
				h-1.049V5.054c0-0.417-0.01-0.864-0.039-1.349h0.922l0.051,0.728h0.027c0.281-0.504,0.855-0.825,1.494-0.825
				c0.991,0,1.643,0.757,1.643,1.989V8.422z"/>
			<path fill="#FFFFFF" d="M97.898,4.492h-1.151v2.29c0,0.583,0.2,0.874,0.608,0.874c0.186,0,0.34-0.02,0.465-0.049l0.031,0.796
				c-0.205,0.078-0.477,0.117-0.814,0.117c-0.826,0-1.32-0.456-1.32-1.65V4.492H95.03V3.706h0.687V2.842l1.03-0.311v1.174h1.151
				V4.492z"/>
			<path fill="#FFFFFF" d="M103.447,8.422H102.4V5.734c0-0.844-0.318-1.271-0.95-1.271c-0.544,0-1.05,0.369-1.05,1.116v2.843h-1.045
				v-6.88h1.045v2.833h0.021c0.33-0.514,0.807-0.767,1.418-0.767c0.998,0,1.607,0.776,1.607,2.009V8.422z"/>
			<path fill="#FFFFFF" d="M109.133,6.316h-3.146c0.02,0.893,0.613,1.397,1.488,1.397c0.463,0,0.892-0.078,1.27-0.223l0.162,0.728
				c-0.445,0.194-0.969,0.291-1.582,0.291c-1.473,0-2.348-0.932-2.348-2.377c0-1.446,0.895-2.533,2.23-2.533
				c1.205,0,1.961,0.893,1.961,2.242C109.17,6.025,109.162,6.19,109.133,6.316z M108.17,5.569c0-0.728-0.367-1.242-1.037-1.242
				c-0.602,0-1.078,0.524-1.146,1.242H108.17z"/>
		</g>
	</g>
</g>
<polygon fill="#F2F2F2" points="148.314,9.192 146.24,10.479 149.689,13.667 136,13.667 136,15.775 136,16.667 149.689,16.667 
	146.24,20.396 148.314,22.176 155.311,15.702 "/>
</svg>
